<svg xmlns="http://www.w3.org/2000/svg" viewBox="0 0 128 128">
  <circle cx="64" cy="64" r="64" fill="#1D9BF0"/>
  <path d="M64 24C45.2 24 30 39.2 30 58v28c0 11 9 20 20 20h28c11 0 20-9 20-20V58c0-18.8-15.2-34-34-34zm-16 48c-4.4 0-8-3.6-8-8s3.6-8 8-8 8 3.6 8 8-3.6 8-8 8zm32 0c-4.4 0-8-3.6-8-8s3.6-8 8-8 8 3.6 8 8-3.6 8-8 8zm-20 16h24c2.2 0 4 1.8 4 4s-1.8 4-4 4H60c-2.2 0-4-1.8-4-4s1.8-4 4-4z" fill="white"/>
  <rect x="24" y="48" width="8" height="24" rx="4" fill="white"/>
  <rect x="96" y="48" width="8" height="24" rx="4" fill="white"/>
</svg> 